<?xml version="1.0" encoding="UTF-8"?>
<!-- Generator: Mobile Designer 1.0 -->
<svg width="100%" height="100%" viewBox="-88 -104 176 208" stroke-miterlimit="2" zoomAndPan="disable"
        xmlns="http://www.w3.org/2000/svg"
        xmlns:xlink="http://www.w3.org/1999/xlink"
        xml:space="preserve" version="1.1" baseProfile="tiny">
 
<!-- Movie Background -->
<rect fill="#fff" x="-88" y="-104" width="176" height="208"/>
 
<!-- Scene 1 -->
<g id="Scene_1">
 
        <!-- Scene Background Color -->
        <rect fill="#fff" x="-88" y="-104" width="176" height="208"/>
 
        <!-- Animation -->
        <g id="Animation_1" transform="translate(-17.42,-22.37) scale(0.729323,0.729323)">
                <path id="Bezier_79" fill="#963"
                        d="M5 137.5 c0 0.5 -40.5 0 -40.5 0 c0 0 -1.5 -12 12.5 -19.5 
                                c0 0 16.93 -0.45 21.5 3.5 c7.5 6.5 6.5 16.5 6.5 16 Z"/>
                <path id="Bezier_78" fill="#963"
                        d="M13 138.5 c0.01 0.49 39 0.5 38.5 0 c0 0 0 -9.5 -10.5 -20.5 
                                c0 0 -20.5 0.5 -20.5 0.5 c0 0 -8 6.5 -7.5 20 Z"/>
                <path id="Bezier_106" fill="#630"
                        d="M-37.04 137.71 c0 0.64 2.57 -8.36 2.57 -8.36 c0 0 39.25 -1.28 39.25 -1.28 
                                c0 0 1.28 9.65 1.28 9.65 c0 0 -43.11 0.64 -43.11 0 Z"/>
                <path id="Bezier_105" fill="#630"
                        d="M13.14 131.27 c-0.64 0.64 36.68 -3.86 36.68 -3.86 c0 0 3.21 11.58 3.21 11.58 
                                c0 0 -41.83 0 -41.83 0 c0 0 1.28 -7.07 1.93 -7.72 Z"/>
                <path id="Bezier_104" fill="#ffac7f"
                        d="M-36.75 -13.75 c0 0 19.75 9.75 19.75 9.75 c0 0 -4.5 3.75 -4.5 3.75 
                                c0 0 -15.25 -9.75 -15.25 -9.75 c0 0 0 -3.75 0 -3.75 Z">
                        <animateTransform attributeName="transform" type="rotate" additive="replace"
                                values="0 -26.87 -7;23.21 -26.39 0.56;0 -26.87 -7"
                                keyTimes="0;0.5;1"
                                dur="1.25s" fill="freeze" repeatCount="indefinite"/>
                        <animateTransform attributeName="transform" type="translate" additive="sum"
                                values="0,0;0.48,7.56;0,0"
                                keyTimes="0;0.5;1"
                                dur="1.25s" fill="freeze" repeatCount="indefinite"/>
                </path>
                <path id="Bezier_80" fill="#ffac7f"
                        d="M4.75 -25.37 c0 0 0.37 23.37 -1.12 33.62 c0 0 3.39 5.36 5.5 0.5 
                                c2 -4.62 -1.12 -35.37 -1.12 -35.37 c0 0 -2.25 -1.37 -3.25 1.25 Z">
                        <animateTransform attributeName="transform" type="translate" additive="replace"
                                values="0,0;2.57,9;0,0"
                                keyTimes="0;0.5;1"
                                dur="1.25s" fill="freeze" repeatCount="indefinite"/>
                </path>
                <path id="Bezier_65" fill="#ffac7f"
                        d="M-8.25 -38.75 c-0.12 0.12 -1.62 14.25 -1.62 14.25 c0 0 5.25 -0.5 5.25 -0.5 
                                c0 0 5.12 -22.75 5.12 -22.75 c0 0 -8.87 9.12 -8.75 9 Z">
                        <animateTransform attributeName="transform" type="translate" additive="replace"
                                values="0,0;1.28,11.58;0,0"
                                keyTimes="0;0.56;1"
                                dur="1.25s" fill="freeze" repeatCount="indefinite"/>
                </path>
                <path id="Bezier_66" fill="#d9926c"
                        d="M-8.87 -37.5 c0 -0.12 8.5 -7.5 8.5 -7.5 c0 0 -3.12 16 -3.12 16 
                                c0 0 -5.5 -1.5 -5.5 -1.5 c0 0 0.12 -7.12 0.12 -7 Z">
                        <animateTransform attributeName="transform" type="translate" additive="replace"
                                values="0,0;1.28,11.58;0,0"
                                keyTimes="0;0.56;1"
                                dur="1.25s" fill="freeze" repeatCount="indefinite"/>
                </path>
                <path id="Bezier_1" fill="#ffac7f"
                        d="M-9.75 -32.75 c-8.75 1 -25.25 -6.75 -31.25 -19.75 c0 0 -3 -15.75 22 -27.5 
                                c0 0 18.25 -5 18.25 -5 c0 0 6.25 28 6.25 28 
                                c0 0 -10.5 23.7 -15.25 24.25 Z">
                        <animateTransform attributeName="transform" type="translate" additive="replace"
                                values="0,0;1.28,11.58;0,0"
                                keyTimes="0;0.56;1"
                                dur="1.25s" fill="freeze" repeatCount="indefinite"/>
                </path>
                <ellipse id="Ellipse_44" cx="-6.5" cy="-50.83" rx="4" ry="4.08" fill="#fff" stroke="#000" stroke-width="2" stroke-linejoin="bevel">
                        <animateTransform attributeName="transform" type="translate" additive="replace"
                                values="0,0;1.28,11.58;0,0"
                                keyTimes="0;0.56;1"
                                dur="1.25s" fill="freeze" repeatCount="indefinite"/>
                </ellipse>
                <ellipse id="Ellipse_45" cx="-28.37" cy="-41.12" rx="3.62" ry="3.62" fill="#fff" stroke="#000" stroke-width="2" stroke-linejoin="bevel">
                        <animateTransform attributeName="transform" type="translate" additive="replace"
                                values="0,0;1.28,11.58;0,0"
                                keyTimes="0;0.56;1"
                                dur="1.25s" fill="freeze" repeatCount="indefinite"/>
                </ellipse>
                <path id="Free_Hand_58" fill="none" stroke="#000" stroke-linejoin="bevel"
                        d="M-14.32 -53.22 c5.44 -3.42 4.2 -16.78 13.23 -13.15">
                        <animateTransform attributeName="transform" type="translate" additive="replace"
                                values="0,0;1.28,11.58;0,0"
                                keyTimes="0;0.56;1"
                                dur="1.25s" fill="freeze" repeatCount="indefinite"/>
                </path>
                <path id="Free_Hand_60" fill="none" stroke="#000" stroke-linejoin="bevel"
                        d="M-26 -48 c-4.32 1.57 -13.39 -5.61 -13.6 2.3">
                        <animateTransform attributeName="transform" type="translate" additive="replace"
                                values="0,0;1.28,11.58;0,0"
                                keyTimes="0;0.56;1"
                                dur="1.25s" fill="freeze" repeatCount="indefinite"/>
                </path>
                <path id="Free_Hand_62" fill="#936"
                        d="M-14.5 -36.97 c-0.45 2.27 0.33 2.69 2.3 1.84 c6.15 -7.29 -9.71 -1.5 -2.3 -1.84">
                        <animateTransform attributeName="transform" type="translate" additive="replace"
                                values="0,0;1.28,11.58;0,0"
                                keyTimes="0;0.56;1"
                                dur="1.25s" fill="freeze" repeatCount="indefinite"/>
                </path>
                <path id="Bezier_13" fill="#f00"
                        d="M-0.5 -86.5 c0 0.25 -24.75 17.05 -27 53 c0 0 -7.16 -24.15 -2.75 -30.75 
                                c10.15 -15.18 29.75 -22 29.75 -22.25 Z">
                        <animateTransform attributeName="transform" type="rotate" additive="replace"
                                values="0 -17.58 -60;1.62 -17.58 -48.41;0 -17.58 -60"
                                keyTimes="0;0.56;1"
                                dur="1.25s" fill="freeze" repeatCount="indefinite"/>
                        <animateTransform attributeName="transform" type="translate" additive="sum"
                                values="0,0;0,11.58;0,0"
                                keyTimes="0;0.56;1"
                                dur="1.25s" fill="freeze" repeatCount="indefinite"/>
                </path>
                <path id="Bezier_14" fill="#f00"
                        d="M0.75 -87.25 c4.72 7.11 -40.24 4.7 -33 58.75 c0.67 5.05 -16.24 -31.58 3.25 -48.5 
                                c13.25 -11.5 28.2 -12.57 29.75 -10.25 Z">
                        <animateTransform attributeName="transform" type="rotate" additive="replace"
                                values="0 -21.5 -56.51;2.19 -21.5 -46.21;0 -21.5 -56.51"
                                keyTimes="0;0.56;1"
                                dur="1.25s" fill="freeze" repeatCount="indefinite"/>
                        <animateTransform attributeName="transform" type="translate" additive="sum"
                                values="0,0;0,10.29;0,0"
                                keyTimes="0;0.56;1"
                                dur="1.25s" fill="freeze" repeatCount="indefinite"/>
                </path>
                <path id="Bezier_15" fill="#f00"
                        d="M-0.75 -89.75 c0.23 -0.09 -17.59 0.26 -39 18.5 c-13.5 11.5 -0.75 38.25 -0.75 38.25 
                                c0 0 -3.25 -38.75 39.75 -56.75 Z">
                        <animateTransform attributeName="transform" type="rotate" additive="replace"
                                values="0 -26.88 -61.42;2.67 -28.17 -49.83;0 -26.88 -61.42"
                                keyTimes="0;0.56;1"
                                dur="1.25s" fill="freeze" repeatCount="indefinite"/>
                        <animateTransform attributeName="transform" type="translate" additive="sum"
                                values="0,0;-1.28,11.58;0,0"
                                keyTimes="0;0.56;1"
                                dur="1.25s" fill="freeze" repeatCount="indefinite"/>
                </path>
                <path id="Bezier_16" fill="#f00"
                        d="M-2.5 -86 c-0.19 -0.15 9 19.75 4 53 c0 0 4.75 -3.25 7.75 -26 
                                c0 0 -0.25 -18.25 -11.75 -27 Z">
                        <animateTransform attributeName="transform" type="rotate" additive="replace"
                                values="0 3.27 -59.57;2.92 3.27 -47.99;0 3.27 -59.57"
                                keyTimes="0;0.56;1"
                                dur="1.25s" fill="freeze" repeatCount="indefinite"/>
                        <animateTransform attributeName="transform" type="translate" additive="sum"
                                values="0,0;0,11.58;0,0"
                                keyTimes="0;0.56;1"
                                dur="1.25s" fill="freeze" repeatCount="indefinite"/>
                </path>
                <path id="Bezier_17" fill="#f00"
                        d="M-1.25 -87.75 c0.25 -0.25 13.25 29.75 10.25 50.25 c0 0 4.98 -8.99 3.5 -25 
                                c-2 -21.5 -13.5 -25.5 -13.75 -25.25 Z">
                        <animateTransform attributeName="transform" type="rotate" additive="replace"
                                values="0 6.36 -62.75;4.09 6.36 -52.45;0 6.36 -62.75"
                                keyTimes="0;0.56;1"
                                dur="1.25s" fill="freeze" repeatCount="indefinite"/>
                        <animateTransform attributeName="transform" type="translate" additive="sum"
                                values="0,0;0,10.29;0,0"
                                keyTimes="0;0.56;1"
                                dur="1.25s" fill="freeze" repeatCount="indefinite"/>
                </path>
                <path id="Bezier_18" fill="#f00"
                        d="M-9.25 -83.62 c0.5 0 6.75 20.25 2.5 46 c0 0 9.6 -10.76 11.5 -29 
                                c1.25 -12 -2.65 -19.14 -4.75 -21.5 c-4 -4.5 -8.75 4.5 -9.25 4.5 Z">
                        <animateTransform attributeName="transform" type="rotate" additive="replace"
                                values="0 -1.62 -65.12;2.28 -0.33 -52.25;0 -1.62 -65.12"
                                keyTimes="0;0.56;1"
                                dur="1.25s" fill="freeze" repeatCount="indefinite"/>
                        <animateTransform attributeName="transform" type="translate" additive="sum"
                                values="0,0;1.28,12.87;0,0"
                                keyTimes="0;0.56;1"
                                dur="1.25s" fill="freeze" repeatCount="indefinite"/>
                </path>
                <polyline id="Line_64" fill="#e16531" stroke="#cf865d"
                         points="-19.5,-40.68 -16.37,-42.06 ">
                        <animateTransform attributeName="transform" type="translate" additive="replace"
                                values="0,0;1.28,11.58;0,0"
                                keyTimes="0;0.56;1"
                                dur="1.25s" fill="freeze" repeatCount="indefinite"/>
                </polyline>
                <path id="Bezier_67" fill="#ffac7f"
                        d="M-18.25 -25.25 c0 0 13.25 0.75 26.25 -3.25 c0 0 -7.75 19.75 -28 37.75 
                                c0 0 -9.25 -4.75 -9.25 -4.75 c0 0 10 -8 11 -29.75 Z">
                        <animateTransform attributeName="transform" type="translate" additive="replace"
                                values="0,0;2.57,9;0,0"
                                keyTimes="0;0.5;1"
                                dur="1.25s" fill="freeze" repeatCount="indefinite"/>
                </path>
                <path id="Bezier_68" fill="#ffac7f"
                        d="M-28.5 3.25 c0 -0.5 -6.27 -4.71 -11.25 -0.5 c-3.25 2.75 -4 8.25 -4 8.25 
                                c0 0 30.25 16.75 30.25 16.75 c0 0 -0.39 -9.05 -0.5 -10.5 
                                c-0.33 -4.68 -3.75 -8.75 -3.75 -8.75 c0 0 -10.75 -5.75 -10.75 -5.25 Z">
                        <animateTransform attributeName="transform" type="translate" additive="replace"
                                values="0,0;2.57,6.43;0,0"
                                keyTimes="0;0.5;1"
                                dur="1.25s" fill="freeze" repeatCount="indefinite"/>
                </path>
                <path id="Bezier_69" fill="#333"
                        d="M-18.25 -25.25 c-0.5 -0.25 0.1 9.31 3.5 10 c2.96 0.59 12.25 0 23 -12 
                                c0 0 -5.5 13.5 -14.5 25.5 c0 0 -11.75 -5 -19 -3.5 
                                c0 0 1.25 -3.75 1.25 -3.75 c0 0 -2.36 -1.83 -3.25 -6.25 
                                c-0.25 -1.25 4 0.5 5.75 -2 c0 0 2.75 -8.25 3.25 -8 Z">
                        <animateTransform attributeName="transform" type="translate" additive="replace"
                                values="0,0;2.57,9;0,0"
                                keyTimes="0;0.5;1"
                                dur="1.25s" fill="freeze" repeatCount="indefinite"/>
                </path>
                <path id="Bezier_71" fill="#ffac7f"
                        d="M-24.37 20.62 c-0.07 0.99 6.37 17.25 10.37 34.87 c0 0 5.07 2.37 5 -0.5 
                                c-0.25 -9.87 -6 -32 -6 -32 c0 0 -9.25 -4 -9.37 -2.37 Z">
                        <animateTransform attributeName="transform" type="rotate" additive="replace"
                                values="0 -16.68 38.43;17.73 -17.97 43.58;0 -16.68 38.43"
                                keyTimes="0;0.5;1"
                                dur="1.25s" fill="freeze" repeatCount="indefinite"/>
                        <animateTransform attributeName="transform" type="translate" additive="sum"
                                values="0,0;-1.28,5.14;0,0"
                                keyTimes="0;0.5;1"
                                dur="1.25s" fill="freeze" repeatCount="indefinite"/>
                </path>
                <path id="Bezier_72" fill="#ffac7f"
                        d="M-44.25 14.62 c-0.18 0.16 7.62 29 13.12 37.5 c0 0 6.28 2.71 5 0 
                                c-5.12 -10.87 -7.87 -35.12 -7.87 -35.12 c0 0 -5.37 -6.75 -10.25 -2.37 Z">
                        <animateTransform attributeName="transform" type="rotate" additive="replace"
                                values="0 -34.64 32.54;21.99 -37.64 39.41;0 -34.64 32.54"
                                keyTimes="0;0.5;1"
                                dur="1.25s" fill="freeze" repeatCount="indefinite"/>
                        <animateTransform attributeName="transform" type="translate" additive="sum"
                                values="0,0;-3,6.86;0,0"
                                keyTimes="0;0.5;1"
                                dur="1.25s" fill="freeze" repeatCount="indefinite"/>
                </path>
                <path id="Bezier_70" fill="#333"
                        d="M-41.75 4 c-0.12 -0.21 -3.25 11.25 -3.25 11.25 c0 0 31.5 14.25 31.5 14.25 
                                c0 0 0.25 -11.75 0.25 -11.75 c0 0 -24 -5.75 -28.5 -13.75 Z">
                        <animateTransform attributeName="transform" type="translate" additive="replace"
                                values="0,0;2.57,6.43;0,0"
                                keyTimes="0;0.5;1"
                                dur="1.25s" fill="freeze" repeatCount="indefinite"/>
                </path>
                <path id="Bezier_73" fill="#900"
                        d="M-9.5 50.5 c0.5 0 -6 2 -6 2 c0 0 -2 3.5 -2 3.5 
                                c0 0 3.5 4 3.5 4 c0 0 2.5 3 2.5 3 
                                c0 0 -3.77 2.89 -1 4.75 c0.75 0.5 4.5 2.75 6.25 2.25 
                                c0 0 5.25 -4.5 5.25 -4.5 c0 0 3.5 -0.25 3.25 -5.75 
                                c0 0 -9.25 -3.75 -9.25 -3.75 c0 0 3 -4 3 -4 
                                c0 0 -5 -1.5 -5.5 -1.5 Z">
                        <animateTransform attributeName="transform" type="translate" additive="replace"
                                values="0,0;-6.43,6.86;0,0"
                                keyTimes="0;0.5;1"
                                dur="1.25s" fill="freeze" repeatCount="indefinite"/>
                </path>
                <path id="Bezier_74" fill="#900"
                        d="M-7.5 66.5 c0.5 0 19 22.5 23.5 38 c0 0 -5 4 -5 4 
                                c0 0 7.5 3 7.5 3 c0 0 -6 6.5 -6 6.5 
                                c0 0 2.22 5.56 4.5 4.5 c8.5 -4 27 1 27 1 
                                c0 0 6 -1.5 6 -1.5 c0 0 -12 -8 -12 -8 
                                c0 0 4.64 1.17 3 -2.5 c-15 -33.5 -42 -46 -42 -46 
                                c0 0 -6 1 -6.5 1 Z">
                        <animateTransform attributeName="transform" type="rotate" additive="replace"
                                values="0 21.25 94.53;-7.91 15.24 97.96;0 21.25 94.53"
                                keyTimes="0;0.5;1"
                                dur="1.25s" fill="freeze" repeatCount="indefinite"/>
                        <animateTransform attributeName="transform" type="translate" additive="sum"
                                values="0,0;-6,3.43;0,0"
                                keyTimes="0;0.5;1"
                                dur="1.25s" fill="freeze" repeatCount="indefinite"/>
                </path>
                <path id="Bezier_75" fill="#900"
                        d="M-31 49.5 c0 0 -6.5 4 -6.5 4 c0 0 6.5 2 6.5 2 
                                c0 0 -2 4.5 -2 4.5 c0 0 -0.21 5.64 3.5 6.5 
                                c6.5 1.5 11 0 11 0 c0 0 1 -5 1 -5 
                                c0 0 -5.5 -5 -5.5 -5 c0 0 2.5 -3.5 2.5 -3.5 
                                c0 0 -5 -4 -5 -4 c0 0 -5.5 0.5 -5.5 0.5 Z">
                        <animateTransform attributeName="transform" type="translate" additive="replace"
                                values="0,0;-10.29,6.86;0,0"
                                keyTimes="0;0.5;1"
                                dur="1.25s" fill="freeze" repeatCount="indefinite"/>
                </path>
                <path id="Bezier_77" fill="#900"
                        d="M-29.25 64.75 c-0.25 -0.25 13.5 18 8.5 41.75 c0 0 -8 1.75 -8 1.75 
                                c0 0 5.75 4.5 5.75 4.5 c0 0 -6 5 -6 5 
                                c0 0 1.24 2.05 4.25 2 c13.25 -0.25 25.25 5 25.25 5 
                                c0 0 2.25 -3 2.25 -3 c0 0 -5 -7 -5 -7 
                                c0 0 6 -3 6 -3 c0 0 -7.25 -4.52 -7.25 -7 
                                c0 -21.75 -16 -40.25 -16 -40.25 c0 0 -10 0 -9.75 0.25 Z">
                        <animateTransform attributeName="transform" type="rotate" additive="replace"
                                values="0 -12.87 94.62;-13.62 -20.16 96.34;0 -12.87 94.62"
                                keyTimes="0;0.5;1"
                                dur="1.25s" fill="freeze" repeatCount="indefinite"/>
                        <animateTransform attributeName="transform" type="translate" additive="sum"
                                values="0,0;-7.29,1.71;0,0"
                                keyTimes="0;0.5;1"
                                dur="1.25s" fill="freeze" repeatCount="indefinite"/>
                </path>
                <path id="Bezier_81" fill="#f60"
                        d="M-49.5 -5 c0 -0.5 36.5 3 36.5 3 c0 0 -4.5 14 -4.5 14 
                                c0 0 -39 5.5 -39 5.5 c0 0 7 -23 7 -22.5 Z">
                        <animateTransform attributeName="transform" type="translate" additive="replace"
                                values="0,0;2.57,6.43;0,0"
                                keyTimes="0;0.5;1"
                                dur="1.25s" fill="freeze" repeatCount="indefinite"/>
                </path>
                <path id="Bezier_101" fill="#ffac7f"
                        d="M4 9 c0 1 20 6 20 6 c0 0 -2 -5 -2 -5 
                                c0 0 -15 -7 -15 -7 c0 0 -3 7 -3 6 Z">
                        <animateTransform attributeName="transform" type="rotate" additive="replace"
                                values="0 14 9;-7.97 16.57 18;0 14 9"
                                keyTimes="0;0.5;1"
                                dur="1.25s" fill="freeze" repeatCount="indefinite"/>
                        <animateTransform attributeName="transform" type="translate" additive="sum"
                                values="0,0;2.57,9;0,0"
                                keyTimes="0;0.5;1"
                                dur="1.25s" fill="freeze" repeatCount="indefinite"/>
                </path>
                <path id="Bezier_82" fill="#fc3"
                        d="M-21.5 2 c-0.5 0.5 72 0 72 0 c0 0 -1 7 -1 7 
                                c0 0 -73.5 -2.5 -73.5 -2.5 c0 0 2 -4 2.5 -4.5 Z">
                        <animateTransform attributeName="transform" type="translate" additive="replace"
                                values="0,0;2.57,6.43;0,0"
                                keyTimes="0;0.5;1"
                                dur="1.25s" fill="freeze" repeatCount="indefinite"/>
                </path>
                <path id="Bezier_83" fill="#f60"
                        d="M49.5 0.5 c0 0.5 -3 9.5 -3 9.5 c0 0 26.5 5.5 26.5 5.5 
                                c0 0 -23.5 -14.5 -23.5 -15 Z">
                        <animateTransform attributeName="transform" type="translate" additive="replace"
                                values="0,0;2.57,6.43;0,0"
                                keyTimes="0;0.5;1"
                                dur="1.25s" fill="freeze" repeatCount="indefinite"/>
                </path>
                <path id="Bezier_84" fill="#999"
                        d="M-32.5 -1 c0 0 -3 10 -3 10 c0 0 6 0 6 0 
                                c0 0 2.5 -9.5 2.5 -9.5 c0 0 -5.5 -0.5 -5.5 -0.5 Z">
                        <animateTransform attributeName="transform" type="translate" additive="replace"
                                values="0,0;2.57,6.43;0,0"
                                keyTimes="0;0.5;1"
                                dur="1.25s" fill="freeze" repeatCount="indefinite"/>
                </path>
                <path id="Bezier_85" fill="#ccc"
                        d="M-49.5 -0.5 c0.5 0 -2.5 11 -2.5 11 c0 0 3.5 -0.5 3.5 -0.5 
                                c0 0 -0.5 -10.5 -1 -10.5 Z">
                        <animateTransform attributeName="transform" type="translate" additive="replace"
                                values="0,0;2.57,6.43;0,0"
                                keyTimes="0;0.5;1"
                                dur="1.25s" fill="freeze" repeatCount="indefinite"/>
                </path>
                <ellipse id="Ellipse_86" cx="-44.25" cy="12.5" rx="2.75" ry="2.5" fill="#ccc">
                        <animateTransform attributeName="transform" type="translate" additive="replace"
                                values="0,0;2.57,6.43;0,0"
                                keyTimes="0;0.5;1"
                                dur="1.25s" fill="freeze" repeatCount="indefinite"/>
                </ellipse>
                <ellipse id="Ellipse_88" cx="-38.5" cy="12" rx="2.5" ry="2.5" fill="#ccc">
                        <animateTransform attributeName="transform" type="translate" additive="replace"
                                values="0,0;2.57,6.43;0,0"
                                keyTimes="0;0.5;1"
                                dur="1.25s" fill="freeze" repeatCount="indefinite"/>
                </ellipse>
                <path id="Bezier_89" fill="#ff3"
                        d="M55.5 3 c0.5 0 -1 -9 -1 -9 c0 0 7 2.5 7 2.5 
                                c0 0 -5.5 6.5 -6 6.5 Z">
                        <animateTransform attributeName="transform" type="translate" additive="replace"
                                values="0,0;2.57,6.43;0,0"
                                keyTimes="0;0.5;1"
                                dur="1.25s" fill="freeze" repeatCount="indefinite"/>
                </path>
                <path id="Bezier_90" fill="#ff3"
                        d="M65 8.5 c0.5 -0.5 -0.5 -7 -0.5 -7 c0 0 6.5 1.5 6.5 1.5 
                                c0 0 -5.5 5 -6 5.5 Z">
                        <animateTransform attributeName="transform" type="translate" additive="replace"
                                values="0,0;2.57,6.43;0,0"
                                keyTimes="0;0.5;1"
                                dur="1.25s" fill="freeze" repeatCount="indefinite"/>
                </path>
                <path id="Bezier_91" fill="#ff3"
                        d="M55 13.5 c0 -0.5 -4.5 5 -4.5 5 c0 0 5.5 2.5 5.5 2.5 
                                c0 0 -1 -8 -1 -7.5 Z">
                        <animateTransform attributeName="transform" type="translate" additive="replace"
                                values="0,0;2.57,6.43;0,0"
                                keyTimes="0;0.5;1"
                                dur="1.25s" fill="freeze" repeatCount="indefinite"/>
                </path>
                <path id="Bezier_92" fill="#ff3"
                        d="M63 15.5 c0.5 0 -1.5 6.5 -1.5 6.5 c0 0 6.5 2.5 6.5 2.5 
                                c0 0 -4.5 -9 -5 -9 Z">
                        <animateTransform attributeName="transform" type="translate" additive="replace"
                                values="0,0;2.57,6.43;0,0"
                                keyTimes="0;0.5;1"
                                dur="1.25s" fill="freeze" repeatCount="indefinite"/>
                </path>
                <path id="Bezier_96" fill="#ccc"
                        d="M-32 0.75 c2.5 0 2.5 0 0 0 Z">
                        <animateTransform attributeName="transform" type="translate" additive="replace"
                                values="0,0;2.57,6.43;0,0"
                                keyTimes="0;0.5;1"
                                dur="1.25s" fill="freeze" repeatCount="indefinite"/>
                </path>
                <path id="Bezier_97" fill="#ccc"
                        d="M-31.5 7.25 c-0.25 0.25 2 -6.5 2 -6.5 c0 0 -3 -0.25 -3 -0.25 
                                c0 0 0.75 7 1 6.75 Z">
                        <animateTransform attributeName="transform" type="translate" additive="replace"
                                values="0,0;2.57,6.43;0,0"
                                keyTimes="0;0.5;1"
                                dur="1.25s" fill="freeze" repeatCount="indefinite"/>
                </path>
                <path id="Bezier_99" fill="#c63"
                        d="M-16.87 11.25 c0.12 0.12 -38.87 5.12 -38.87 5.12 c0 0 1.37 3 1.12 3 
                                c-0.25 0 37.87 -8 37.75 -8.12 Z">
                        <animateTransform attributeName="transform" type="translate" additive="replace"
                                values="0,0;2.57,6.43;0,0"
                                keyTimes="0;0.5;1"
                                dur="1.25s" fill="freeze" repeatCount="indefinite"/>
                </path>
                <path id="Bezier_100" fill="#ffac7f"
                        d="M18.87 12.62 c0 0 9.12 -14.12 9.12 -14.12 c0 0 -2.5 11 -2.5 11 
                                c0 0 5 -5 5 -5 c0 0 -1 5 -1 5 
                                c0 0 9 -3.5 9 -3.5 c0 0 -5.98 7.54 -9 8.5 
                                c-10.62 3.37 -10.62 -1.87 -10.62 -1.87 Z">
                        <animateTransform attributeName="transform" type="translate" additive="replace"
                                values="0,0;0,6.43;0,0"
                                keyTimes="0;0.5;1"
                                dur="1.25s" fill="freeze" repeatCount="indefinite"/>
                </path>
                <path id="Bezier_102" fill="#ffac7f"
                        d="M-41.38 4 c0 1 -1.86 -14.34 -0.44 -16.49 c4.37 -6.62 6.7 0.12 6.7 -0.12 
                                c0 0 2.25 10.87 0.25 19.37 c0 0 -1.34 -11.74 -1.34 -11.74 
                                c0 0 -1.59 14.49 -1.59 14.49 c0 0 -1.59 -13.99 -1.59 -13.99 
                                c0 0 -1.99 9.49 -1.99 8.49 Z">
                        <animateTransform attributeName="transform" type="rotate" additive="replace"
                                values="0.52 -38.05 -4.81;-11.77 -34.19 -0.95;0.52 -38.05 -4.81"
                                keyTimes="0;0.56;1"
                                dur="1.25s" fill="freeze" repeatCount="indefinite"/>
                        <animateTransform attributeName="transform" type="translate" additive="sum"
                                values="0,0;3.86,3.86;0,0"
                                keyTimes="0;0.56;1"
                                dur="1.25s" fill="freeze" repeatCount="indefinite"/>
                </path>
        </g>
        <text x="0" y="100" id="Text_307_copy" font-size="12" font-family="Arial">(c) Edik Mitgartz</text>
</g>
 
</svg>
